<svg width="163" height="143" viewBox="0 0 163 143" fill="none" xmlns="http://www.w3.org/2000/svg">
<path d="M133.863 63.6786L78.7091 8.52427C74.4133 4.2285 67.4485 4.2285 63.1527 8.52427L7.99841 63.6786C3.70264 67.9744 3.70264 74.9392 7.99841 79.2349L63.1527 134.389C67.4485 138.685 74.4133 138.685 78.7091 134.389L133.863 79.2349C138.159 74.9392 138.159 67.9744 133.863 63.6786Z" fill="#1E4450"/>
<path d="M102.652 133C100.107 133.005 97.5854 132.505 95.2344 131.53C92.8833 130.554 90.7491 129.123 88.9554 127.318L63 92.7147V40.5375L88.9138 14.6477C92.5486 11.0308 97.4697 9 102.6 9C107.73 9 112.651 11.0308 116.286 14.6477L157.346 54.7159C160.967 58.3471 163 63.2637 163 68.3892C163 73.5148 160.967 78.4314 157.346 82.0626L139.254 102.147L118.009 122.407C139.967 101.355 113.127 127.531 110.749 129.358C108.371 131.186 105.598 132.433 102.652 133Z" fill="#0079F2"/>
<path d="M158.389 69.2088C158.781 69.5824 159 70.0837 159 70.6058C159 71.1278 158.781 71.6292 158.389 72.0028L104.223 123.688C103.924 123.972 103.542 124.168 103.124 124.249C102.706 124.33 102.271 124.293 101.876 124.142C101.48 123.992 101.142 123.735 100.904 123.405C100.666 123.075 100.539 122.686 100.54 122.288V20.0028C100.539 19.6049 100.666 19.216 100.904 18.8856C101.142 18.5553 101.48 18.2985 101.876 18.1482C102.271 17.9979 102.706 17.9609 103.124 18.0419C103.542 18.1228 103.924 18.3181 104.223 18.6028L158.389 69.2088Z" fill="#1885F3"/>
</svg>
